<svg height="480pt" viewBox="0 0 480 480" width="480pt" xmlns="http://www.w3.org/2000/svg"><path d="m0 16h368v464h-368zm0 0" fill="#e4725f"/><path d="m32 48h304v400h-304zm0 0" fill="#fff"/><path d="m432 80 24-80 24 80v400h-48zm0 0" fill="#f0d365"/><path d="m432 448h48v32h-48zm0 0" fill="#976947"/><g fill="#8892a0"><path d="m56 344h256v16h-256zm0 0"/><path d="m56 376h256v16h-256zm0 0"/><path d="m56 408h256v16h-256zm0 0"/><path d="m56 248h256v16h-256zm0 0"/><path d="m56 280h256v16h-256zm0 0"/><path d="m56 312h256v16h-256zm0 0"/></g><path d="m208 0h16v88h-16zm0 0" fill="#a66d43"/><path d="m272 0h16v88h-16zm0 0" fill="#a66d43"/><path d="m80 0h16v88h-16zm0 0" fill="#a66d43"/><path d="m144 0h16v88h-16zm0 0" fill="#a66d43"/><path d="m304 184h-240c-4.414062 0-8-3.585938-8-8v-64c0-4.414062 3.585938-8 8-8h240c4.414062 0 8 3.585938 8 8v64c0 4.414062-3.585938 8-8 8zm-232-16h224v-48h-224zm0 0" fill="#8892a0"/><path d="m480 456h-80c-4.414062 0-8-3.574219-8-8v-104h16v96h72zm0 0" fill="#c18e59"/></svg>