<svg height="496pt" viewBox="0 -8 496 496" width="496pt" xmlns="http://www.w3.org/2000/svg"><path d="m256 80c0 44.183594-35.816406 80-80 80s-80-35.816406-80-80 35.816406-80 80-80 80 35.816406 80 80zm0 0" fill="#8f6b00"/><path d="m232 80c0-43.628906-30.445312-79-68-79s-68 35.371094-68 79 30.445312 79 68 79 68-35.371094 68-79zm0 0" fill="#bf8f00"/><path d="m408 80c0 44.183594-35.816406 80-80 80s-80-35.816406-80-80 35.816406-80 80-80 80 35.816406 80 80zm0 0" fill="#8f6b00"/><path d="m384 80c0-43.628906-30.445312-79-68-79s-68 35.371094-68 79 30.445312 79 68 79 68-35.371094 68-79zm0 0" fill="#bf8f00"/><path d="m328 80c0 44.183594-35.816406 80-80 80s-80-35.816406-80-80 35.816406-80 80-80 80 35.816406 80 80zm0 0" fill="#8f6b00"/><path d="m304 80c0-43.628906-30.445312-79-68-79s-68 35.371094-68 79 30.445312 79 68 79 68-35.371094 68-79zm0 0" fill="#bf8f00"/><path d="m96 224h304v208h-304zm0 0" fill="#89b769"/><path d="m128 256h240v144h-240zm0 0" fill="#54bce8"/><path d="m128 256h216v144h-216zm0 0" fill="#7fcdee"/><path d="m64 432h368v48h-368zm0 0" fill="#2f4322"/><path d="m64 432h344v48h-344zm0 0" fill="#3f592d"/><path d="m154.339844 354.34375 64-64 11.3125 11.3125-64 64zm0 0" fill="#2a5e74"/><path d="m210.339844 354.34375 64-64 11.3125 11.3125-64 64zm0 0" fill="#2a5e74"/><path d="m266.335938 354.34375 64.003906-64 11.3125 11.3125-64 64zm0 0" fill="#2a5e74"/><path d="m248 120h-24v-16h24c4.40625 0 8-3.59375 8-8s-3.59375-8-8-8c-13.230469 0-24-10.769531-24-24s10.769531-24 24-24h24v16h-24c-4.40625 0-8 3.59375-8 8s3.59375 8 8 8c13.230469 0 24 10.769531 24 24s-10.769531 24-24 24zm0 0" fill="#8f6b00"/><path d="m240 24h16v24h-16zm0 0" fill="#8f6b00"/><path d="m240 112h16v24h-16zm0 0" fill="#8f6b00"/><g fill="#736357"><path d="m488 336h-56v-16h48v-232h-32v-16h40c4.414062 0 8 3.585938 8 8v248c0 4.414062-3.585938 8-8 8zm0 0"/><path d="m450.34375 357.65625-24-24c-3.128906-3.128906-3.128906-8.183594 0-11.3125l24-24 11.3125 11.3125-18.34375 18.34375 18.34375 18.34375zm0 0"/><path d="m56 336h-48c-4.414062 0-8-3.585938-8-8v-248c0-4.414062 3.585938-8 8-8h56v16h-48v232h40zm0 0"/><path d="m45.65625 109.65625-11.3125-11.3125 18.34375-18.34375-18.34375-18.34375 11.3125-11.3125 24 24c3.128906 3.128906 3.128906 8.183594 0 11.3125zm0 0"/></g></svg>